<?xml version="1.0" encoding="UTF-8"?>
<svg xmlns="http://www.w3.org/2000/svg" width="128" height="128" viewBox="0 0 128 128" fill="none">
  <rect width="128" height="128" rx="8" fill="white"/>
  <g fill="#111111">
    <!-- Large corner squares -->
    <rect x="8" y="8" width="32" height="32" />
    <rect x="88" y="8" width="32" height="32" />
    <rect x="8" y="88" width="32" height="32" />

    <!-- Inner small squares to make it look like a QR -->
    <rect x="18" y="18" width="12" height="12" />
    <rect x="98" y="18" width="12" height="12" />
    <rect x="18" y="98" width="12" height="12" />

    <!-- Random pattern blocks -->
    <rect x="56" y="16" width="8" height="8" />
    <rect x="72" y="16" width="8" height="8" />
    <rect x="56" y="32" width="8" height="8" />
    <rect x="40" y="40" width="8" height="8" />
    <rect x="72" y="40" width="8" height="8" />
    <rect x="88" y="56" width="8" height="8" />
    <rect x="16" y="56" width="8" height="8" />
    <rect x="40" y="72" width="8" height="8" />
    <rect x="64" y="72" width="8" height="8" />
    <rect x="80" y="80" width="8" height="8" />
  </g>
</svg>
